<svg width="1093" height="131" viewBox="0 0 1093 131" fill="none" xmlns="http://www.w3.org/2000/svg">
<path d="M603.11 129.215V4.2832H627.506L672.736 78.1715L656.888 77.993L702.83 4.2832H726.335V129.215H700.159V86.9167C700.159 76.0893 700.396 66.3327 700.871 57.647C701.465 48.9612 702.415 40.3945 703.72 31.9467L706.748 40.335L670.243 96.9113H658.312L622.698 40.6919L625.547 31.9467C626.972 39.9185 627.922 48.1283 628.396 56.5761C628.99 65.0239 629.287 75.1374 629.287 86.9167V129.215H603.11Z" fill="white" style="fill:white;fill-opacity:1;"/>
<path d="M497.2 129.215V4.2832H581.249V27.8418H523.376V105.656H582.496V129.215H497.2ZM509.665 76.9222V54.0775H572.702V76.9222H509.665Z" fill="white" style="fill:white;fill-opacity:1;"/>
<path d="M432.411 131C420.777 131 410.805 128.918 402.495 124.753C394.304 120.47 387.24 114.283 381.304 106.192L398.043 87.2738C403.86 95.3646 409.618 100.897 415.316 103.872C421.133 106.727 427.365 108.155 434.013 108.155C437.694 108.155 440.958 107.62 443.807 106.549C446.775 105.478 449.09 103.991 450.752 102.087C452.533 100.183 453.423 97.9822 453.423 95.4836C453.423 93.5798 453.008 91.8546 452.177 90.3078C451.346 88.6421 450.158 87.2143 448.615 86.0244C447.072 84.7156 445.232 83.5853 443.095 82.6334C440.958 81.5626 438.584 80.6702 435.972 79.9563C433.36 79.2424 430.511 78.588 427.425 77.9931C420.777 76.5653 414.96 74.7211 409.974 72.4604C404.988 70.1997 400.833 67.4631 397.509 64.2506C394.185 61.0381 391.692 57.3496 390.03 53.1852C388.487 48.9018 387.715 44.1425 387.715 38.9073C387.715 31.5303 389.792 25.1053 393.947 19.6321C398.102 14.0399 403.623 9.69702 410.508 6.60347C417.393 3.39094 424.991 1.78467 433.301 1.78467C444.579 1.78467 453.839 3.68839 461.08 7.49584C468.44 11.3033 474.317 16.6575 478.709 23.5585L461.614 40.3351C457.934 35.2188 453.72 31.3519 448.971 28.7343C444.223 26.1166 439.118 24.8078 433.657 24.8078C429.858 24.8078 426.475 25.3433 423.507 26.4141C420.658 27.366 418.462 28.8532 416.919 30.876C415.375 32.7797 414.604 35.0403 414.604 37.658C414.604 39.7996 415.138 41.7034 416.206 43.3691C417.275 45.0349 418.759 46.5222 420.658 47.831C422.676 49.0208 425.11 50.0917 427.959 51.0435C430.808 51.9954 433.954 52.7688 437.397 53.3637C443.926 54.6725 449.802 56.4572 455.026 58.7179C460.249 60.8596 464.701 63.4772 468.381 66.5708C472.18 69.6643 475.088 73.2338 477.107 77.2792C479.125 81.3246 480.134 85.846 480.134 90.8432C480.134 99.291 478.116 106.489 474.079 112.439C470.043 118.388 464.463 122.969 457.341 126.181C450.218 129.394 441.908 131 432.411 131Z" fill="white" style="fill:white;fill-opacity:1;"/>
<path d="M317.537 130.286C307.447 130.286 298.424 128.204 290.471 124.04C282.635 119.756 276.462 113.926 271.951 106.549C267.44 99.0532 265.185 90.6054 265.185 81.2058V4.10498H291.895V79.5995C291.895 84.5968 293.023 89.1181 295.279 93.1636C297.653 97.09 300.799 100.243 304.716 102.623C308.634 105.002 312.908 106.192 317.537 106.192C322.405 106.192 326.797 105.002 330.715 102.623C334.751 100.243 337.897 97.09 340.152 93.1636C342.527 89.1181 343.714 84.5968 343.714 79.5995V4.10498H369.534V81.2058C369.534 90.6054 367.278 99.0532 362.767 106.549C358.375 113.926 352.261 119.756 344.426 124.04C336.591 128.204 327.628 130.286 317.537 130.286Z" fill="white" style="fill:white;fill-opacity:1;"/>
<path d="M185.982 131C176.841 131 168.353 129.394 160.518 126.181C152.802 122.969 146.094 118.507 140.396 112.796C134.816 106.965 130.424 100.124 127.219 92.271C124.132 84.4182 122.589 75.7919 122.589 66.3923C122.589 57.1116 124.132 48.5449 127.219 40.692C130.424 32.8392 134.816 25.9977 140.396 20.1675C146.094 14.3373 152.802 9.816 160.518 6.60347C168.353 3.39094 176.841 1.78467 185.982 1.78467C195.123 1.78467 203.492 3.39094 211.09 6.60347C218.806 9.816 225.514 14.3373 231.212 20.1675C236.91 25.9977 241.303 32.8987 244.389 40.8705C247.595 48.7234 249.197 57.2306 249.197 66.3923C249.197 75.6729 247.595 84.2397 244.389 92.0926C241.303 99.9454 236.91 106.787 231.212 112.617C225.514 118.447 218.806 122.969 211.09 126.181C203.492 129.394 195.123 131 185.982 131ZM185.982 105.657C191.205 105.657 196.013 104.705 200.406 102.801C204.798 100.778 208.597 98.0417 211.802 94.5912C215.126 91.0217 217.679 86.8573 219.459 82.098C221.24 77.3387 222.13 72.1035 222.13 66.3923C222.13 60.8001 221.24 55.6243 219.459 50.865C217.679 46.1057 215.126 41.9413 211.802 38.3719C208.597 34.8024 204.798 32.0658 200.406 30.1621C196.013 28.1393 191.205 27.128 185.982 27.128C180.759 27.128 175.891 28.1393 171.38 30.1621C166.988 32.0658 163.13 34.8024 159.806 38.3719C156.6 41.8224 154.107 45.9867 152.327 50.865C150.546 55.6243 149.656 60.8596 149.656 66.5708C149.656 74.0667 151.199 80.7892 154.285 86.7383C157.491 92.5685 161.764 97.2088 167.107 100.659C172.567 103.991 178.859 105.657 185.982 105.657Z" fill="white" style="fill:white;fill-opacity:1;"/>
<path d="M78.7073 129.215V4.2832H105.418V129.215H78.7073ZM0 129.215V4.2832H26.7106V129.215H0ZM10.8623 79.2423V54.6129H92.2407V79.2423H10.8623Z" fill="white" style="fill:white;fill-opacity:1;"/>
<path d="M981.172 129.216V4.28369H1032.46C1041.48 4.28369 1049.73 5.83047 1057.21 8.92402C1064.69 11.8986 1071.1 16.182 1076.44 21.7742C1081.78 27.2474 1085.88 33.8509 1088.73 41.5848C1091.58 49.1997 1093 57.588 1093 66.7496C1093 76.0303 1091.58 84.4781 1088.73 92.0929C1085.88 99.7078 1081.78 106.311 1076.44 111.904C1071.1 117.377 1064.69 121.66 1057.21 124.754C1049.85 127.728 1041.6 129.216 1032.46 129.216H981.172ZM1007.88 109.583L1005.03 105.122H1031.57C1036.91 105.122 1041.66 104.229 1045.81 102.444C1050.09 100.66 1053.71 98.1016 1056.67 94.7701C1059.76 91.3196 1062.08 87.2741 1063.62 82.6338C1065.16 77.8745 1065.93 72.5798 1065.93 66.7496C1065.93 60.9195 1065.16 55.6842 1063.62 51.0439C1062.08 46.2846 1059.76 42.2392 1056.67 38.9077C1053.71 35.4572 1050.09 32.8396 1045.81 31.0548C1041.66 29.2701 1036.91 28.3777 1031.57 28.3777H1004.5L1007.88 24.2728V109.583Z" fill="white" style="fill:white;fill-opacity:1;"/>
<path fill-rule="evenodd" clip-rule="evenodd" d="M803.987 7.62939e-05C794.846 7.62939e-05 786.358 1.60636 778.523 4.81889C770.806 8.03143 764.099 12.4933 758.401 18.2044C752.821 24.0346 748.429 30.8761 745.223 38.729C742.137 46.5818 740.594 55.2081 740.594 64.6077C740.594 73.8884 742.137 82.4551 745.223 90.308C748.429 98.1608 752.821 105.002 758.401 110.832C764.099 116.663 770.806 121.184 778.523 124.397C786.358 127.609 794.846 129.215 803.987 129.215C813.128 129.215 821.497 127.609 829.095 124.397C836.811 121.184 843.518 116.663 849.217 110.832C854.915 105.002 859.307 98.1014 862.394 90.1295C865.584 82.3149 867.186 73.8523 867.202 64.7416H867.383L867.382 64.4292C867.382 56.9333 868.925 50.2108 872.011 44.2617C875.217 38.4315 879.49 33.7912 884.833 30.3407C890.293 27.0092 896.585 25.3434 903.708 25.3434C908.931 25.3434 913.739 26.2953 918.132 28.199C922.524 30.2217 926.323 32.9583 929.528 36.4088C932.852 39.9783 935.405 44.1427 937.185 48.902C938.966 53.6613 939.856 58.8965 939.856 64.6077C939.856 70.1999 938.966 75.3757 937.185 80.135C935.405 84.8943 932.852 89.0587 929.528 92.6281C926.323 96.1976 922.524 98.9342 918.132 100.838C913.739 102.861 908.931 103.872 903.708 103.872C898.536 103.872 893.714 102.881 889.24 100.898C885.925 109.393 881.439 116.865 875.783 123.312C876.591 123.688 877.412 124.05 878.244 124.397C886.079 127.609 894.567 129.215 903.708 129.215C912.849 129.215 921.218 127.609 928.816 124.397C936.532 121.184 943.24 116.663 948.938 110.832C954.636 105.002 959.029 98.1014 962.115 90.1295C965.321 82.2766 966.923 73.7694 966.923 64.6077C966.923 55.3271 965.321 46.7603 962.115 38.9074C959.029 31.0546 954.636 24.2131 948.938 18.3829C943.24 12.5528 936.532 8.03143 928.816 4.81889C921.218 1.60636 912.849 7.62939e-05 903.708 7.62939e-05C894.567 7.62939e-05 886.079 1.60636 878.244 4.81889C870.528 8.03143 863.82 12.4933 858.122 18.2044C852.542 24.0346 848.15 30.8761 844.945 38.729C841.858 46.5818 840.315 55.2081 840.315 64.6077C840.315 65.3259 840.324 66.0398 840.343 66.7494H840.091C839.891 71.5273 839.015 75.9891 837.464 80.135C835.683 84.8943 833.131 89.0587 829.807 92.6281C826.602 96.1976 822.803 98.9342 818.41 100.838C814.018 102.861 809.21 103.872 803.987 103.872C798.763 103.872 793.896 102.861 789.385 100.838C784.992 98.9342 781.134 96.1976 777.81 92.6281C774.605 89.1776 772.112 85.0133 770.331 80.135C768.551 75.3757 767.66 70.1404 767.66 64.4292C767.66 56.9333 769.204 50.2108 772.29 44.2617C775.495 38.4315 779.769 33.7912 785.111 30.3407C790.572 27.0092 796.864 25.3434 803.987 25.3434C809.21 25.3434 814.018 26.2953 818.41 28.199L818.411 28.1992C821.864 19.9408 826.308 12.5378 831.741 5.99036C830.872 5.58224 829.99 5.19176 829.095 4.81889C821.497 1.60636 813.128 7.62939e-05 803.987 7.62939e-05Z" fill="white" style="fill:white;fill-opacity:1;"/>
</svg>
