<svg width="402" height="79" viewBox="0 0 402 79" fill="none" xmlns="http://www.w3.org/2000/svg">
<path d="M99.7383 46.6401V32.6401H102.478L107.558 40.9201L105.778 40.9001L110.938 32.6401H113.578V46.6401H110.638V41.9001C110.638 40.6868 110.665 39.5935 110.718 38.6201C110.785 37.6468 110.892 36.6868 111.038 35.7401L111.378 36.6801L107.278 43.0201H105.938L101.938 36.7201L102.258 35.7401C102.418 36.6335 102.525 37.5535 102.578 38.5001C102.645 39.4468 102.678 40.5801 102.678 41.9001V46.6401H99.7383Z" fill="white" style="fill:white;fill-opacity:1;"/>
<path d="M87.8428 46.6401V32.6401H97.2828V35.2801H90.7828V44.0001H97.4228V46.6401H87.8428ZM89.2428 40.7801V38.2201H96.3228V40.7801H89.2428Z" fill="white" style="fill:white;fill-opacity:1;"/>
<path d="M80.5662 46.8404C79.2595 46.8404 78.1395 46.607 77.2062 46.1404C76.2862 45.6604 75.4928 44.967 74.8262 44.0604L76.7062 41.9404C77.3595 42.847 78.0062 43.467 78.6462 43.8004C79.2995 44.1204 79.9995 44.2804 80.7462 44.2804C81.1595 44.2804 81.5262 44.2204 81.8462 44.1004C82.1795 43.9804 82.4395 43.8137 82.6262 43.6004C82.8262 43.387 82.9262 43.1404 82.9262 42.8604C82.9262 42.647 82.8795 42.4537 82.7862 42.2804C82.6928 42.0937 82.5595 41.9337 82.3862 41.8004C82.2128 41.6537 82.0062 41.527 81.7662 41.4204C81.5262 41.3004 81.2595 41.2004 80.9662 41.1204C80.6728 41.0404 80.3528 40.967 80.0062 40.9004C79.2595 40.7404 78.6062 40.5337 78.0462 40.2804C77.4862 40.027 77.0195 39.7204 76.6462 39.3604C76.2728 39.0004 75.9928 38.587 75.8062 38.1204C75.6328 37.6404 75.5462 37.107 75.5462 36.5204C75.5462 35.6937 75.7795 34.9737 76.2462 34.3604C76.7128 33.7337 77.3328 33.247 78.1062 32.9004C78.8795 32.5404 79.7328 32.3604 80.6662 32.3604C81.9328 32.3604 82.9728 32.5737 83.7862 33.0004C84.6128 33.427 85.2728 34.027 85.7662 34.8004L83.8462 36.6804C83.4328 36.107 82.9595 35.6737 82.4262 35.3804C81.8928 35.087 81.3195 34.9404 80.7062 34.9404C80.2795 34.9404 79.8995 35.0004 79.5662 35.1204C79.2462 35.227 78.9995 35.3937 78.8262 35.6204C78.6528 35.8337 78.5662 36.087 78.5662 36.3804C78.5662 36.6204 78.6262 36.8337 78.7462 37.0204C78.8662 37.207 79.0328 37.3737 79.2462 37.5204C79.4728 37.6537 79.7462 37.7737 80.0662 37.8804C80.3862 37.987 80.7395 38.0737 81.1262 38.1404C81.8595 38.287 82.5195 38.487 83.1062 38.7404C83.6928 38.9804 84.1928 39.2737 84.6062 39.6204C85.0328 39.967 85.3595 40.367 85.5862 40.8204C85.8128 41.2737 85.9262 41.7804 85.9262 42.3404C85.9262 43.287 85.6995 44.0937 85.2462 44.7604C84.7928 45.427 84.1662 45.9404 83.3662 46.3004C82.5662 46.6604 81.6328 46.8404 80.5662 46.8404Z" fill="white" style="fill:white;fill-opacity:1;"/>
<path d="M67.6642 46.7601C66.5308 46.7601 65.5175 46.5268 64.6242 46.0601C63.7442 45.5801 63.0508 44.9268 62.5442 44.1001C62.0375 43.2601 61.7842 42.3135 61.7842 41.2601V32.6201H64.7842V41.0801C64.7842 41.6401 64.9108 42.1468 65.1642 42.6001C65.4308 43.0401 65.7842 43.3935 66.2242 43.6601C66.6642 43.9268 67.1442 44.0601 67.6642 44.0601C68.2108 44.0601 68.7042 43.9268 69.1442 43.6601C69.5975 43.3935 69.9508 43.0401 70.2042 42.6001C70.4708 42.1468 70.6042 41.6401 70.6042 41.0801V32.6201H73.5042V41.2601C73.5042 42.3135 73.2508 43.2601 72.7442 44.1001C72.2508 44.9268 71.5642 45.5801 70.6842 46.0601C69.8042 46.5268 68.7975 46.7601 67.6642 46.7601Z" fill="white" style="fill:white;fill-opacity:1;"/>
<path d="M52.8886 46.8404C51.8619 46.8404 50.9086 46.6604 50.0286 46.3004C49.1619 45.9404 48.4086 45.4404 47.7686 44.8004C47.1419 44.147 46.6486 43.3804 46.2886 42.5004C45.9419 41.6204 45.7686 40.6537 45.7686 39.6004C45.7686 38.5604 45.9419 37.6004 46.2886 36.7204C46.6486 35.8404 47.1419 35.0737 47.7686 34.4204C48.4086 33.767 49.1619 33.2604 50.0286 32.9004C50.9086 32.5404 51.8619 32.3604 52.8886 32.3604C53.9152 32.3604 54.8552 32.5404 55.7086 32.9004C56.5752 33.2604 57.3286 33.767 57.9686 34.4204C58.6086 35.0737 59.1019 35.847 59.4486 36.7404C59.8086 37.6204 59.9886 38.5737 59.9886 39.6004C59.9886 40.6404 59.8086 41.6004 59.4486 42.4804C59.1019 43.3604 58.6086 44.127 57.9686 44.7804C57.3286 45.4337 56.5752 45.9404 55.7086 46.3004C54.8552 46.6604 53.9152 46.8404 52.8886 46.8404ZM52.8886 44.0004C53.4752 44.0004 54.0152 43.8937 54.5086 43.6804C55.0019 43.4537 55.4286 43.147 55.7886 42.7604C56.1619 42.3604 56.4486 41.8937 56.6486 41.3604C56.8486 40.827 56.9486 40.2404 56.9486 39.6004C56.9486 38.9737 56.8486 38.3937 56.6486 37.8604C56.4486 37.327 56.1619 36.8604 55.7886 36.4604C55.4286 36.0604 55.0019 35.7537 54.5086 35.5404C54.0152 35.3137 53.4752 35.2004 52.8886 35.2004C52.3019 35.2004 51.7552 35.3137 51.2486 35.5404C50.7552 35.7537 50.3219 36.0604 49.9486 36.4604C49.5886 36.847 49.3086 37.3137 49.1086 37.8604C48.9086 38.3937 48.8086 38.9804 48.8086 39.6204C48.8086 40.4604 48.9819 41.2137 49.3286 41.8804C49.6886 42.5337 50.1686 43.0537 50.7686 43.4404C51.3819 43.8137 52.0886 44.0004 52.8886 44.0004Z" fill="white" style="fill:white;fill-opacity:1;"/>
<path d="M40.84 46.6401V32.6401H43.84V46.6401H40.84ZM32 46.6401V32.6401H35V46.6401H32ZM33.22 41.0401V38.2801H42.36V41.0401H33.22Z" fill="white" style="fill:white;fill-opacity:1;"/>
<path d="M142.2 46.6406V32.6406H147.96C148.974 32.6406 149.9 32.814 150.74 33.1606C151.58 33.494 152.3 33.974 152.9 34.6006C153.5 35.214 153.96 35.954 154.28 36.8206C154.6 37.674 154.76 38.614 154.76 39.6406C154.76 40.6806 154.6 41.6273 154.28 42.4806C153.96 43.334 153.5 44.074 152.9 44.7006C152.3 45.314 151.58 45.794 150.74 46.1406C149.914 46.474 148.987 46.6406 147.96 46.6406H142.2ZM145.2 44.4406L144.88 43.9406H147.86C148.46 43.9406 148.994 43.8406 149.46 43.6406C149.94 43.4406 150.347 43.154 150.68 42.7806C151.027 42.394 151.287 41.9406 151.46 41.4206C151.634 40.8873 151.72 40.294 151.72 39.6406C151.72 38.9873 151.634 38.4006 151.46 37.8806C151.287 37.3473 151.027 36.894 150.68 36.5206C150.347 36.134 149.94 35.8406 149.46 35.6406C148.994 35.4406 148.46 35.3406 147.86 35.3406H144.82L145.2 34.8806V44.4406Z" fill="white" style="fill:white;fill-opacity:1;"/>
<path fill-rule="evenodd" clip-rule="evenodd" d="M122.3 32.1601C121.273 32.1601 120.32 32.3401 119.44 32.7001C118.573 33.0601 117.82 33.5601 117.18 34.2001C116.553 34.8535 116.06 35.6201 115.7 36.5001C115.353 37.3801 115.18 38.3468 115.18 39.4001C115.18 40.4401 115.353 41.4001 115.7 42.2801C116.06 43.1601 116.553 43.9268 117.18 44.5801C117.82 45.2335 118.573 45.7401 119.44 46.1001C120.32 46.4601 121.273 46.6401 122.3 46.6401C123.326 46.6401 124.266 46.4601 125.12 46.1001C125.986 45.7401 126.74 45.2335 127.38 44.5801C128.02 43.9268 128.513 43.1535 128.86 42.2601C129.218 41.3844 129.398 40.4361 129.4 39.4151H129.42L129.42 39.3801C129.42 38.5401 129.593 37.7868 129.94 37.1201C130.3 36.4668 130.78 35.9468 131.38 35.5601C131.993 35.1868 132.7 35.0001 133.5 35.0001C134.087 35.0001 134.627 35.1068 135.12 35.3201C135.613 35.5468 136.04 35.8535 136.4 36.2401C136.773 36.6401 137.06 37.1068 137.26 37.6401C137.46 38.1735 137.56 38.7601 137.56 39.4001C137.56 40.0268 137.46 40.6068 137.26 41.1401C137.06 41.6735 136.773 42.1401 136.4 42.5401C136.04 42.9401 135.613 43.2468 135.12 43.4601C134.627 43.6868 134.087 43.8001 133.5 43.8001C132.919 43.8001 132.377 43.689 131.875 43.4668C131.503 44.4189 130.999 45.2561 130.363 45.9786C130.454 46.0208 130.546 46.0613 130.64 46.1001C131.52 46.4601 132.473 46.6401 133.5 46.6401C134.527 46.6401 135.467 46.4601 136.32 46.1001C137.187 45.7401 137.94 45.2335 138.58 44.5801C139.22 43.9268 139.713 43.1535 140.06 42.2601C140.42 41.3801 140.6 40.4268 140.6 39.4001C140.6 38.3601 140.42 37.4001 140.06 36.5201C139.713 35.6401 139.22 34.8735 138.58 34.2201C137.94 33.5668 137.187 33.0601 136.32 32.7001C135.467 32.3401 134.527 32.1601 133.5 32.1601C132.473 32.1601 131.52 32.3401 130.64 32.7001C129.773 33.0601 129.02 33.5601 128.38 34.2001C127.753 34.8535 127.26 35.6201 126.9 36.5001C126.553 37.3801 126.38 38.3468 126.38 39.4001C126.38 39.4806 126.381 39.5606 126.383 39.6401H126.355C126.332 40.1755 126.234 40.6755 126.06 41.1401C125.86 41.6735 125.573 42.1401 125.2 42.5401C124.84 42.9401 124.413 43.2468 123.92 43.4601C123.426 43.6868 122.886 43.8001 122.3 43.8001C121.713 43.8001 121.166 43.6868 120.66 43.4601C120.166 43.2468 119.733 42.9401 119.36 42.5401C119 42.1535 118.72 41.6868 118.52 41.1401C118.32 40.6068 118.22 40.0201 118.22 39.3801C118.22 38.5401 118.393 37.7868 118.74 37.1201C119.1 36.4668 119.58 35.9468 120.18 35.5601C120.793 35.1868 121.5 35.0001 122.3 35.0001C122.886 35.0001 123.426 35.1068 123.92 35.3201L123.92 35.3202C124.308 34.3947 124.807 33.5651 125.417 32.8314C125.319 32.7857 125.22 32.7419 125.12 32.7001C124.266 32.3401 123.326 32.1601 122.3 32.1601Z" fill="white" style="fill:white;fill-opacity:1;"/>
<path d="M344 35H370" stroke="white" style="stroke:white;stroke-opacity:1;" stroke-width="2" stroke-linecap="round" stroke-linejoin="round"/>
<path d="M344 44H370" stroke="white" style="stroke:white;stroke-opacity:1;" stroke-width="2" stroke-linecap="round" stroke-linejoin="round"/>
</svg>
