<svg width="402" height="78" viewBox="0 0 402 78" fill="none" xmlns="http://www.w3.org/2000/svg">
<path d="M125.805 48.7274V29.6538H129.599L136.634 40.9345L134.169 40.9072L141.315 29.6538H144.971V48.7274H140.899V42.2696C140.899 40.6166 140.936 39.127 141.01 37.8009C141.102 36.4749 141.25 35.167 141.453 33.8772L141.924 35.1579L136.246 43.7955H134.391L128.851 35.2124L129.294 33.8772C129.516 35.0943 129.664 36.3477 129.738 37.6375C129.83 38.9272 129.876 40.4712 129.876 42.2696V48.7274H125.805Z" fill="white" style="fill:white;fill-opacity:1;"/>
<path d="M109.332 48.7274V29.6538H122.405V33.2505H113.403V45.1306H122.599V48.7274H109.332ZM111.271 40.7437V37.256H121.075V40.7437H111.271Z" fill="white" style="fill:white;fill-opacity:1;"/>
<path d="M99.255 49C97.4455 49 95.8945 48.6821 94.602 48.0463C93.328 47.3924 92.2294 46.4478 91.3062 45.2125L93.9096 42.3242C94.8143 43.5595 95.7099 44.4042 96.5961 44.8583C97.5009 45.2943 98.4703 45.5122 99.5043 45.5122C100.077 45.5122 100.584 45.4305 101.028 45.267C101.489 45.1035 101.849 44.8765 102.108 44.5858C102.385 44.2952 102.523 43.9591 102.523 43.5776C102.523 43.287 102.459 43.0236 102.329 42.7874C102.2 42.5331 102.015 42.3151 101.775 42.1335C101.535 41.9337 101.249 41.7611 100.917 41.6158C100.584 41.4523 100.215 41.3161 99.8089 41.2071C99.4027 41.0981 98.9596 40.9982 98.4795 40.9073C97.4455 40.6894 96.5408 40.4078 95.7653 40.0627C94.9898 39.7175 94.3435 39.2997 93.8265 38.8092C93.3095 38.3188 92.9218 37.7557 92.6633 37.1199C92.4232 36.4659 92.3032 35.7393 92.3032 34.94C92.3032 33.8138 92.6263 32.8329 93.2726 31.9973C93.9188 31.1435 94.7774 30.4805 95.8483 30.0082C96.9193 29.5177 98.101 29.2725 99.3935 29.2725C101.148 29.2725 102.588 29.5631 103.714 30.1444C104.859 30.7257 105.773 31.5431 106.456 32.5967L103.797 35.158C103.225 34.3769 102.569 33.7865 101.831 33.3869C101.092 32.9873 100.298 32.7874 99.4489 32.7874C98.858 32.7874 98.3318 32.8692 97.8702 33.0327C97.427 33.178 97.0854 33.4051 96.8454 33.7139C96.6054 34.0045 96.4854 34.3497 96.4854 34.7493C96.4854 35.0763 96.5684 35.3669 96.7346 35.6212C96.9008 35.8755 97.1316 36.1026 97.427 36.3024C97.7409 36.4841 98.1194 36.6476 98.5626 36.7929C99.0057 36.9382 99.495 37.0563 100.03 37.1471C101.046 37.3469 101.96 37.6194 102.772 37.9646C103.585 38.2915 104.277 38.6912 104.85 39.1635C105.44 39.6358 105.893 40.1807 106.207 40.7983C106.521 41.416 106.678 42.1062 106.678 42.8692C106.678 44.1589 106.364 45.2579 105.736 46.1662C105.108 47.0745 104.24 47.7738 103.132 48.2643C102.025 48.7547 100.732 49 99.255 49Z" fill="white" style="fill:white;fill-opacity:1;"/>
<path d="M81.3883 48.8908C79.8189 48.8908 78.4156 48.5729 77.1785 47.9371C75.9598 47.2831 74.9997 46.393 74.2981 45.2668C73.5964 44.1224 73.2456 42.8326 73.2456 41.3976V29.6265H77.4V41.1523C77.4 41.9153 77.5755 42.6056 77.9263 43.2232C78.2956 43.8226 78.7849 44.304 79.3942 44.6673C80.0035 45.0306 80.6682 45.2123 81.3883 45.2123C82.1453 45.2123 82.8285 45.0306 83.4378 44.6673C84.0656 44.304 84.5549 43.8226 84.9057 43.2232C85.275 42.6056 85.4597 41.9153 85.4597 41.1523V29.6265H89.4756V41.3976C89.4756 42.8326 89.1248 44.1224 88.4232 45.2668C87.74 46.393 86.7891 47.2831 85.5704 47.9371C84.3518 48.5729 82.9578 48.8908 81.3883 48.8908Z" fill="white" style="fill:white;fill-opacity:1;"/>
<path d="M60.9268 49C59.505 49 58.1848 48.7547 56.9662 48.2643C55.766 47.7738 54.7228 47.0926 53.8365 46.2207C52.9687 45.3306 52.2855 44.2861 51.787 43.0872C51.3069 41.8883 51.0669 40.5713 51.0669 39.1362C51.0669 37.7193 51.3069 36.4114 51.787 35.2125C52.2855 34.0136 52.9687 32.9691 53.8365 32.079C54.7228 31.1889 55.766 30.4986 56.9662 30.0082C58.1848 29.5177 59.505 29.2725 60.9268 29.2725C62.3485 29.2725 63.6502 29.5177 64.8319 30.0082C66.0321 30.4986 67.0753 31.1889 67.9616 32.079C68.8479 32.9691 69.5311 34.0227 70.0111 35.2398C70.5097 36.4387 70.7589 37.7375 70.7589 39.1362C70.7589 40.5531 70.5097 41.861 70.0111 43.0599C69.5311 44.2588 68.8479 45.3033 67.9616 46.1934C67.0753 47.0835 66.0321 47.7738 64.8319 48.2643C63.6502 48.7547 62.3485 49 60.9268 49ZM60.9268 45.1308C61.7392 45.1308 62.487 44.9854 63.1702 44.6948C63.8533 44.386 64.4442 43.9682 64.9427 43.4414C65.4597 42.8964 65.8567 42.2607 66.1337 41.534C66.4106 40.8074 66.5491 40.0082 66.5491 39.1362C66.5491 38.2825 66.4106 37.4923 66.1337 36.7656C65.8567 36.039 65.4597 35.4033 64.9427 34.8583C64.4442 34.3133 63.8533 33.8955 63.1702 33.6049C62.487 33.2961 61.7392 33.1417 60.9268 33.1417C60.1143 33.1417 59.3573 33.2961 58.6557 33.6049C57.9725 33.8955 57.3724 34.3133 56.8554 34.8583C56.3569 35.3851 55.9691 36.0209 55.6922 36.7656C55.4152 37.4923 55.2767 38.2915 55.2767 39.1635C55.2767 40.3079 55.5168 41.3342 55.9968 42.2425C56.4954 43.1326 57.1601 43.841 57.991 44.3678C58.8403 44.8765 59.8189 45.1308 60.9268 45.1308Z" fill="white" style="fill:white;fill-opacity:1;"/>
<path d="M44.2418 48.7274V29.6538H48.3962V48.7274H44.2418ZM32 48.7274V29.6538H36.1544V48.7274H32ZM33.6895 41.0979V37.3377H46.3467V41.0979H33.6895Z" fill="white" style="fill:white;fill-opacity:1;"/>
<path d="M184.607 48.7274V29.6538H192.583C193.987 29.6538 195.27 29.89 196.433 30.3623C197.596 30.8164 198.594 31.4703 199.424 32.3241C200.255 33.1597 200.892 34.1679 201.335 35.3486C201.779 36.5112 202 37.7919 202 39.1906C202 40.6075 201.779 41.8972 201.335 43.0598C200.892 44.2224 200.255 45.2306 199.424 46.0843C198.594 46.9199 197.596 47.5739 196.433 48.0462C195.288 48.5003 194.005 48.7274 192.583 48.7274H184.607ZM188.761 45.7301L188.318 45.0489H192.445C193.276 45.0489 194.014 44.9127 194.661 44.6402C195.325 44.3677 195.889 43.9772 196.35 43.4685C196.83 42.9417 197.19 42.3241 197.43 41.6157C197.67 40.889 197.79 40.0807 197.79 39.1906C197.79 38.3005 197.67 37.5012 197.43 36.7928C197.19 36.0662 196.83 35.4485 196.35 34.9399C195.889 34.4131 195.325 34.0135 194.661 33.741C194.014 33.4685 193.276 33.3323 192.445 33.3323H188.235L188.761 32.7056V45.7301Z" fill="white" style="fill:white;fill-opacity:1;"/>
<path fill-rule="evenodd" clip-rule="evenodd" d="M157.048 29C155.627 29 154.306 29.2453 153.088 29.7357C151.888 30.2262 150.844 30.9074 149.958 31.7793C149.09 32.6694 148.407 33.7139 147.909 34.9128C147.429 36.1117 147.188 37.4287 147.188 38.8638C147.188 40.2807 147.429 41.5886 147.909 42.7875C148.407 43.9864 149.09 45.0309 149.958 45.921C150.844 46.8111 151.888 47.5014 153.088 47.9918C154.306 48.4823 155.627 48.7275 157.048 48.7275C158.47 48.7275 159.772 48.4823 160.954 47.9918C162.154 47.5014 163.197 46.8111 164.083 45.921C164.969 45.0309 165.653 43.9773 166.133 42.7602C166.629 41.5672 166.878 40.2752 166.881 38.8842H166.909L166.908 38.8365C166.908 37.6921 167.149 36.6658 167.629 35.7575C168.127 34.8674 168.792 34.159 169.623 33.6322C170.472 33.1235 171.451 32.8692 172.559 32.8692C173.371 32.8692 174.119 33.0146 174.802 33.3052C175.485 33.614 176.076 34.0318 176.574 34.5586C177.091 35.1036 177.488 35.7393 177.765 36.466C178.042 37.1926 178.181 37.9918 178.181 38.8638C178.181 39.7175 178.042 40.5077 177.765 41.2344C177.488 41.961 177.091 42.5967 176.574 43.1417C176.076 43.6867 175.485 44.1045 174.802 44.3951C174.119 44.7039 173.371 44.8583 172.559 44.8583C171.754 44.8583 171.004 44.707 170.308 44.4042C169.793 45.7013 169.095 46.842 168.215 47.8262C168.341 47.8837 168.469 47.939 168.598 47.9918C169.817 48.4823 171.137 48.7275 172.559 48.7275C173.98 48.7275 175.282 48.4823 176.464 47.9918C177.664 47.5014 178.707 46.8111 179.593 45.921C180.48 45.0309 181.163 43.9773 181.643 42.7602C182.141 41.5613 182.391 40.2625 182.391 38.8638C182.391 37.4469 182.141 36.139 181.643 34.9401C181.163 33.7412 180.48 32.6967 179.593 31.8066C178.707 30.9165 177.664 30.2262 176.464 29.7357C175.282 29.2453 173.98 29 172.559 29C171.137 29 169.817 29.2453 168.598 29.7357C167.398 30.2262 166.355 30.9074 165.468 31.7793C164.6 32.6694 163.917 33.7139 163.419 34.9128C162.939 36.1117 162.699 37.4287 162.699 38.8638C162.699 38.9734 162.7 39.0824 162.703 39.1908H162.664C162.633 39.9202 162.497 40.6014 162.255 41.2344C161.978 41.961 161.581 42.5967 161.064 43.1417C160.566 43.6867 159.975 44.1045 159.292 44.3951C158.609 44.7039 157.861 44.8583 157.048 44.8583C156.236 44.8583 155.479 44.7039 154.777 44.3951C154.094 44.1045 153.494 43.6867 152.977 43.1417C152.478 42.6149 152.091 41.9791 151.814 41.2344C151.537 40.5077 151.398 39.7085 151.398 38.8365C151.398 37.6921 151.638 36.6658 152.118 35.7575C152.617 34.8674 153.282 34.159 154.113 33.6322C154.962 33.1235 155.94 32.8692 157.048 32.8692C157.861 32.8692 158.609 33.0146 159.292 33.3052L159.292 33.3052C159.829 32.0444 160.52 30.9142 161.365 29.9146C161.23 29.8523 161.093 29.7926 160.954 29.7357C159.772 29.2453 158.47 29 157.048 29Z" fill="white" style="fill:white;fill-opacity:1;"/>
<path d="M348 48.3848L366.385 30" stroke="white" style="stroke:white;stroke-opacity:1;" stroke-width="2" stroke-linecap="round" stroke-linejoin="round"/>
<path d="M348 30.3848L366.385 48.7695" stroke="white" style="stroke:white;stroke-opacity:1;" stroke-width="2" stroke-linecap="round" stroke-linejoin="round"/>
</svg>
